Coordinates
version=1
nRows=18
nColumns=19
inDegrees=yes

Units are S.I. units (second, meters, Newtons, ...)
If the header above contains a line with 'inDegrees', this indicates whether rotational values are in degrees (yes) or radians (no).

endheader
time	pelvis_tilt	pelvis_list	pelvis_rotation	pelvis_tx	pelvis_ty	pelvis_tz	hip_flexion_r	hip_adduction_r	hip_rotation_r	knee_angle_r	knee_angle_r_beta	ankle_angle_r	hip_flexion_l	hip_adduction_l	hip_rotation_l	knee_angle_l	knee_angle_l_beta	ankle_angle_l
     14.95333333	     -0.46734044	    -10.69992407	     -1.41296665	      2.22125790	      1.00762833	      1.03187763	     32.41971163	     12.36189062	    -10.58961272	     31.73063853	      0.55380412	      0.88768084	    -14.93899124	    -12.46723226	     -1.69638381	     66.60800687	      1.16252903	    -17.24318168
     14.96000000	      0.05571580	    -11.02339230	     -1.69382188	      2.22187918	      1.00280306	      1.03186767	     31.55405332	     12.85209261	    -10.32278172	     33.57092240	      0.58592313	      1.95997798	    -14.31311304	    -12.71688840	     -1.60120974	     69.62984711	      1.21527009	    -16.30264729
     14.96666667	      0.38294669	    -11.33975306	     -2.07205604	      2.22225455	      0.99754951	      1.03196384	     30.96206265	     13.38714109	     -9.98656797	     35.61878744	      0.62166512	      3.34129215	    -13.41446299	    -13.02350374	     -1.64761843	     72.66592981	      1.26825973	    -15.24917005
     14.97333333	     -0.08685216	    -11.43785152	     -2.67536836	      2.22228173	      0.99123323	      1.03236805	     31.33246463	     13.82980980	     -9.38809075	     37.96910670	      0.66268593	      4.92344207	    -11.49848956	    -13.15784652	     -1.68787357	     75.83350350	      1.32354432	    -14.18041093
     14.98000000	     -0.15507250	    -11.68857430	     -3.25426692	      2.22212179	      0.98539006	      1.03273077	     31.25896357	     14.46097117	     -8.82986032	     40.36711904	      0.70453914	      6.83621359	    -10.03165263	    -13.55449142	     -1.93987646	     78.83600599	      1.37594787	    -13.07237611
     14.98666667	     -0.35573865	    -11.95900126	     -3.88391909	      2.22169392	      0.97943770	      1.03316948	     31.32858096	     15.16948600	     -8.22594825	     42.82660581	      0.74746528	      8.92926166	     -8.34263800	    -14.09000490	     -2.26184857	     81.80336710	      1.42773810	    -11.97584210
     14.99333333	     -0.61731617	    -12.23549865	     -4.52343129	      2.22100458	      0.97360045	      1.03364815	     31.42110442	     15.92532490	     -7.58376007	     45.26112591	      0.78995567	     11.12586709	     -6.49558806	    -14.73821532	     -2.58364921	     84.70726152	      1.47842061	    -10.90991712
     15.00000000	     -0.98704036	    -12.48030043	     -5.14741314	      2.22005604	      0.96791272	      1.03409644	     31.55737630	     16.66908768	     -6.91574489	     47.60591985	      0.83088004	     13.34498555	     -4.41167509	    -15.42601530	     -2.81061075	     87.53366127	      1.52775060	     -9.92640694
     15.00666667	     -1.39309620	    -12.65903336	     -5.71441424	      2.21884279	      0.96259577	      1.03448942	     31.61885574	     17.33636986	     -6.22614900	     49.77930872	      0.86881284	     15.52963316	     -2.14044073	    -16.08988375	     -2.88480863	     90.24984299	      1.57515691	     -9.02741274
     15.01333333	     -1.77600519	    -12.83543236	     -6.23879709	      2.21747743	      0.95782097	      1.03483044	     31.47845449	     18.00190285	     -5.47813408	     51.66808693	      0.90177824	     17.61780328	      0.22106768	    -16.79585327	     -2.85629454	     92.80869147	      1.61981724	     -8.24846242
     15.02000000	     -1.35045805	    -13.00848926	     -6.50003824	      2.21602533	      0.95473959	      1.03481167	     30.22529857	     18.49908803	     -4.74952924	     53.17277250	      0.92803995	     19.57398136	      1.78976180	    -17.38357133	     -2.70104965	     95.00414666	      1.65813516	     -7.69048780
     15.02666667	     -2.45180368	    -12.96161160	     -7.02612150	      2.21426790	      0.95024500	      1.03516293	     30.52849823	     18.93900730	     -3.92783453	     54.49144817	      0.95105518	     21.38944757	      5.29039214	    -17.88608084	     -2.25512030	     97.34123982	      1.69892513	     -6.99281458
     15.03333333	     -2.67643958	    -12.89973291	     -7.24098996	      2.21252331	      0.94766155	      1.03506207	     29.62314445	     19.15308110	     -3.15180060	     55.35570367	      0.96613929	     23.02008430	      7.91595536	    -18.18483495	     -1.67693363	     99.24051531	      1.73207374	     -6.48652614
     15.04000000	     -2.41716319	    -12.80718155	     -7.38753287	      2.21100508	      0.94645162	      1.03484397	     27.91247092	     19.24070214	     -2.28012368	     55.80017788	      0.97389683	     24.57247381	      9.96851187	    -18.34063895	     -1.17967394	    100.73398606	      1.75813973	     -6.00370579
     15.04666667	     -2.27168025	    -12.61116128	     -7.46675264	      2.20945510	      0.94585712	      1.03460382	     26.14132677	     19.14683418	     -1.44875545	     55.87800838	      0.97525523	     25.87825933	     12.24353738	    -18.34022610	     -0.58036348	    101.96592684	      1.77964115	     -5.53906250
     15.05333333	     -2.07491505	    -12.32837754	     -7.52766747	      2.20784434	      0.94603789	      1.03437681	     24.16907769	     18.93190167	     -0.52376308	     55.67381569	      0.97169139	     26.71054040	     14.48070826	    -18.16902818	      0.00258742	    102.89027813	      1.79577412	     -5.08995180
     15.06000000	     -2.21992605	    -11.91831841	     -7.01659704	      2.20652775	      0.94630485	      1.03339002	     22.53671820	     18.20523247	     -0.45750964	     55.16181522	      0.96275530	     27.74550904	     17.37782342	    -17.59809398	      1.24821262	    103.61325441	      1.80839244	     -4.59987145
     15.06666667	     -2.17265895	    -11.48049001	     -7.06921409	      2.20542155	      0.94769563	      1.03329421	     20.41250939	     17.74139114	      0.40050871	     54.34113994	      0.94843181	     28.29155940	     19.63919051	    -17.18310836	      1.67415661	    103.85657359	      1.81263916	     -4.00270895
